<?xml version="1.0" encoding="utf-8"?>
<!-- Generator: Adobe Illustrator 25.3.1, SVG Export Plug-In . SVG Version: 6.00 Build 0)  -->
<svg version="1.1" id="레이어_2" xmlns="http://www.w3.org/2000/svg" xmlns:xlink="http://www.w3.org/1999/xlink" x="0px"
	 y="0px" viewBox="0 0 20 20" style="enable-background:new 0 0 20 20;" xml:space="preserve">
<g>
	<g>
		<path d="M14.19,8.22c-0.08,2.59-1.73,4.96-4.22,5.8c-2.5,0.84-5.31,0.03-6.95-2.05C1.41,9.92,1.26,7.01,2.63,4.8
			c1.35-2.19,4.03-3.36,6.56-2.82C12.14,2.6,14.19,5.22,14.19,8.22c0,0.97,1.5,0.97,1.5,0c0.01-3.22-1.93-6.14-4.94-7.33
			C7.73-0.31,4.13,0.6,2.04,3.08c-2.08,2.48-2.44,6.07-0.82,8.89c1.62,2.82,4.87,4.28,8.05,3.76c3.66-0.6,6.3-3.87,6.41-7.52
			C15.71,7.25,14.21,7.25,14.19,8.22z"/>
	</g>
</g>
<g>
	<g>
		<path d="M12.61,13.31c1.73,1.78,3.46,3.57,5.19,5.35c0.24,0.25,0.49,0.51,0.73,0.76c0.67,0.69,1.73-0.37,1.06-1.06
			c-1.73-1.78-3.46-3.57-5.19-5.35c-0.24-0.25-0.49-0.51-0.73-0.76C13,11.56,11.94,12.62,12.61,13.31L12.61,13.31z"/>
	</g>
</g>
</svg>
